<svg width="144" height="105" viewBox="0 0 144 105" fill="none" xmlns="http://www.w3.org/2000/svg">
<g clip-path="url(#clip0_1_3)">
<path d="M100.162 13.7666C100.162 6.17065 93.813 0 85.979 0H0.0254627L0 74.5669C0 82.1711 6.3487 88.3335 14.1827 88.3335H73.2392L100.196 76.2723L100.162 13.7666Z" fill="#711C1C"/>
<path d="M139.17 50.6999C138.652 50.2468 138.992 49.6783 139.458 49.3405C139.891 49.6865 139.645 49.9337 140.019 50.395C139.739 50.5021 139.45 50.601 139.161 50.6999M133.229 52.5288C133.195 52.3558 133.101 52.2899 132.982 52.2981C132.753 51.6967 133.441 51.5155 133.466 51.0212C133.789 51.2107 133.704 51.8368 134.23 52.1581C133.899 52.2817 133.568 52.397 133.229 52.5206M112.841 52.1746C112.544 52.1087 112.494 52.2569 112.782 52.0345C115.685 52.1416 118.825 51.7379 121.669 51.9768C119.114 52.4135 115.142 52.6689 112.833 52.1746M115.116 65.8588L115.133 65.8258L115.167 65.8588H115.108H115.116ZM107.605 72.4413C106.892 73.1663 105.712 73.6524 104.676 74.3691C104.456 74.4927 104.362 74.814 104.422 74.9047C102.801 75.6214 102.224 76.643 100.611 77.4092L101.392 77.2362C100.56 77.8293 99.9828 78.3648 98.8879 79.0404C97.9713 79.5018 97.496 80.2597 96.7915 80.581C94.5678 81.8992 92.1997 82.9372 90.5192 84.2636C90.672 83.967 91.1388 83.7528 91.334 83.5469C92.4374 82.2369 95.0685 81.1659 96.9443 79.7654C97.5809 79.3287 98.158 78.7768 98.7946 78.3401C101.765 76.3382 104.626 74.2373 107.622 72.0294C107.664 71.9965 107.707 71.9635 107.749 71.9388C108.19 71.7328 108.657 71.5104 109.141 71.2879C108.657 71.6669 108.122 72.0541 107.588 72.4496M97.3856 85.8454C94.9412 86.8917 92.1658 88.317 89.7384 89.8082C87.0393 88.3005 101.816 84.4778 102.86 80.8858C104.481 81.5614 99.3548 84.9886 97.3856 85.8454ZM74.1297 97.61C74.7154 97.1569 75.318 96.7367 75.9545 96.4649C77.4229 95.7811 79.2138 95.1797 80.7076 94.5535C80.3766 94.43 81.1404 94.1746 81.1065 94.0675C82.473 93.12 84.2808 92.5928 86.0378 91.9337C86.2839 91.8348 86.3264 91.9337 86.6149 91.9337C82.3202 94.0263 78.2377 95.8799 74.1297 97.6183M66.7455 97.2805C67.8404 96.7615 68.9863 96.2836 70.166 95.7976C67.9847 96.5473 65.8289 97.297 64.1993 98.1208L64.3011 98.1043L64.0805 98.1785L64.1993 98.1126C63.4184 98.2197 62.6376 98.2362 61.7124 98.4092L61.4833 98.5739L61.3984 98.2526C63.5203 96.918 66.4909 96.7038 68.9608 95.6657C72.1436 94.2817 75.666 93.0953 78.6536 91.2417C79.1204 90.9698 79.9098 90.8215 80.402 90.6485C78.7639 91.5465 77.4568 92.6092 75.7848 93.4743C75.5302 93.5567 75.2416 93.532 74.987 93.6061C74.5541 93.9768 73.8666 94.43 73.0942 94.6689C72.1012 95.0067 71.1166 95.3856 70.1575 95.7811C72.1691 95.0726 74.1976 94.3393 75.7763 93.4743C73.1452 95.0561 69.8944 96.2012 66.7371 97.264M65.9392 97.6677C65.3536 97.9149 64.8274 98.0302 64.3011 98.1043L66.7286 97.2805L65.9392 97.6595V97.6677ZM143.431 52.9407C143.558 52.5453 144.127 52.3311 143.965 51.8038C143.626 50.6422 142.09 50.1396 143.142 50.0573C142.293 49.8101 142.455 48.6073 142.735 48.1624C142.327 47.6928 141.606 47.8905 141.088 47.6599C140.901 47.3468 141.224 47.2644 140.961 46.9101C140.681 46.7619 140.392 46.6218 140.121 46.4241C134.205 46.4488 127.703 46.3829 121.703 47.4045C127.508 47.1161 133.432 46.5806 139.077 46.6383C139.391 46.803 139.671 47.042 139.968 47.2644C139.908 47.042 139.722 46.7701 139.9 46.663C140.29 46.5229 140.859 47.2726 140.613 47.6681C135.945 48.2118 131.514 48.2448 127.262 47.9235C121.007 49.0604 115.133 48.1294 109.098 49.5053C109.234 49.5053 109.353 49.5465 109.446 49.6289C109.192 49.9337 108.767 49.4641 108.869 49.8348C118.231 49.9254 129.851 48.9039 138.364 49.4229C138.253 49.5053 137.888 50.0243 138.236 49.9419C138.321 49.563 138.754 48.9615 139.221 49.1098C139.144 49.6536 138.771 50.0573 138.457 50.4857C134.748 50.0078 130.648 50.3621 126.642 50.5186C126.659 50.4198 126.659 50.3456 126.6 50.3291C126.379 50.1232 126.142 50.2632 125.946 50.5433C124.656 50.5845 123.375 50.601 122.118 50.5516C118.469 51.2848 115.057 50.1479 111.747 50.9882C113.656 51.4413 116.024 50.9388 117.917 51.4413C115.226 51.6885 111.84 51.4001 109.718 52.0345C112.672 52.6936 116.126 52.2899 119.207 52.7018C116.466 52.8419 113.614 53.1961 111.135 52.7842C110.66 53.7976 108.734 52.8996 108.428 53.7564C110.83 54.0118 113.614 53.4433 115.931 53.8799C113.249 54.8356 111.017 53.3609 108.869 55.3217C108.886 55.9313 108.912 56.7964 109.472 57.3072C111.594 57.3978 113.809 57.2907 115.872 57.5131C115.642 57.6532 115.43 57.439 115.439 57.6697C115.685 57.7438 116.016 57.612 116.169 57.8839C116.007 57.9662 115.753 58.0074 115.795 58.1722C117.034 58.5594 118.537 58.3782 120.022 58.2299C119.156 59.2844 118.197 60.2978 117.272 61.377C116.992 61.723 116.703 62.0608 116.415 62.3986C112.239 65.109 108.165 67.8607 103.828 70.5053C104.065 70.9172 103.59 71.0078 103.666 71.3456C103.989 71.5763 103.947 71.049 104.142 71.3291C104.091 71.5104 103.42 71.98 103.93 72.0377C105.907 70.7772 107.995 69.5249 110.1 68.3056C109.667 68.6434 109.243 68.9729 108.793 69.3025L108.869 69.3436C108.105 69.9203 107.299 70.4559 106.467 70.9996C105.653 71.5269 105.22 72.2024 104.354 72.6967C98.6333 76.1075 92.8278 79.1145 86.7592 81.998C86.3518 82.377 85.902 82.7642 85.4012 83.1102C85.7831 82.9702 86.1821 82.8301 86.6064 82.7065C83.5085 85.9031 76.5741 88.1275 72.8736 90.1706C68.6383 92.4362 63.5797 94.1251 58.241 95.4351L58.7333 95.2373L58.0628 95.4763L58.241 95.4351C55.7032 96.4566 53.0381 97.3876 50.2797 98.2362C52.758 97.3217 55.3043 96.4566 58.0628 95.4763C55.2194 96.1765 52.2912 96.7615 49.346 97.297C46.1123 98.2032 42.9294 98.681 39.5853 99.3648C38.8215 99.579 38.0406 99.6861 37.5483 99.9745C37.2173 100.304 36.8863 100.642 36.5892 100.963C37.6247 100.79 38.6772 100.526 39.5684 100.288C39.458 100.345 39.4835 100.436 39.492 100.494C40.9179 100.271 41.9024 99.9086 43.3793 99.6779C41.3932 100.592 38.8215 100.98 36.2582 101.359L35.9442 101.795C41.3338 101.342 46.7234 100.131 51.8074 98.5575L54.5744 97.5606L53.1145 97.7501L54.6593 97.4205L55.3892 97.264L54.5744 97.5606L55.1006 97.47L56.1531 97.0992L55.4146 97.2475C56.9764 96.6956 58.572 96.1106 60.2695 95.5092C58.9285 96.0447 57.562 96.6049 56.1531 97.0992C59.0813 96.5143 62.1623 95.9211 64.8868 94.8172C66.2872 94.0839 68.2394 93.4496 69.8859 92.6175L69.9538 92.461L70.3528 92.3621C70.548 92.222 70.7602 92.0573 70.8875 91.9502C72.6274 91.1922 74.3249 90.3189 76.1667 89.5775L76.6166 89.3221C77.0749 89.0502 77.8558 88.9101 78.348 88.7371C77.5926 88.9925 76.8712 89.2809 76.1667 89.5775C74.1891 90.6567 72.7463 91.7854 70.3528 92.3621C70.217 92.4527 70.0812 92.5351 69.9878 92.5598L69.8859 92.6092C69.47 93.4166 67.815 93.8862 66.3806 94.2734C66.7031 94.4217 65.9053 94.5206 65.9647 94.7348C62.2896 95.7234 58.8351 96.8521 55.1091 97.4535C54.0312 97.8407 52.9278 98.195 51.8159 98.541L49.2781 99.4967C45.2126 100.889 40.2474 101.49 35.715 102.29C35.6217 102.627 35.6471 102.957 35.8508 103.278C40.9094 103.047 45.7643 101.655 50.7041 100.872L50.8059 100.815C52.758 99.7438 56.1955 99.2413 58.6484 98.0796C61.0674 96.8274 63.5712 95.9623 65.9562 94.7348C64.5642 95.5916 63.1383 96.3907 61.9416 97.0498C59.9894 97.9808 57.876 98.2774 56.2125 99.3236C55.7457 99.6532 54.6762 99.785 53.9208 100.057C53.6153 100.23 53.2758 100.395 52.9278 100.551L54.116 100.436C54.4131 100.518 47.5976 102.463 47.9371 102.825C47.9626 102.932 53.5728 101.367 57.5705 100.386C58.4362 100.535 57.2734 102.133 56.7642 102.355L56.5944 102.479L58.4192 102.141L61.2032 101.153C62.7055 100.634 64.2078 100.065 65.7185 99.5214L64.5557 100.131L63.9871 100.452C62.4339 101.276 60.4647 101.729 58.4192 102.141L55.2873 103.253C55.7711 102.998 56.221 102.743 56.5944 102.479L54.2858 102.924C53.1654 103.484 52.4695 103.772 52.0621 103.888C51.9093 104.077 51.7141 104.316 51.434 104.613L51.6462 104.572L55.2788 103.262L55.2025 103.303C56.569 102.998 57.9779 102.776 59.3359 102.504C61.7464 101.639 64.1908 100.757 66.6437 99.8509L65.4724 100.469C63.8428 101.49 61.6445 102.042 59.3359 102.504C57.0358 103.319 54.7696 104.135 52.5543 104.959C54.1076 104.646 55.873 104.275 57.3753 103.814C63.3845 101.886 68.7741 99.8262 74.1297 97.5688L73.5865 97.989C76.4638 97.1899 79.2477 96.1271 81.6242 94.6606C82.0995 94.3805 82.7361 93.7874 83.2454 93.6061C85.6134 92.6587 87.7438 91.4559 89.8572 90.2613C88.8302 90.7968 87.7777 91.2828 86.7083 91.8183L86.6234 91.8595C88.618 89.9812 91.8008 88.8772 94.8394 87.559C95.5948 87.1883 96.3671 86.8505 97.1565 86.5127C96.4181 86.8917 95.6287 87.2295 94.8394 87.559C93.1249 88.4158 91.4953 89.3221 89.8657 90.253C93.9652 88.2181 97.8015 86.2161 101.782 84.1153C105.551 82.0722 108.852 79.716 111.942 77.1455C112.757 76.4947 113.597 75.885 114.454 75.2919C114.946 75.1024 115.388 74.814 115.829 74.5339L115.744 74.7234C116.092 74.4845 116.432 74.2373 116.771 73.9902C116.788 73.9819 116.814 73.9655 116.839 73.9572C120.591 72.3178 123.595 69.5743 127.05 67.5971C126.956 69.6238 125.827 71.1891 125.021 72.8945C125.131 73.3641 126.014 71.4115 126.54 70.9337C126.133 72.2024 125.021 73.1663 124.648 74.4433C125.115 74.3444 125.165 73.4629 125.488 73.6689C125.344 75.1518 123.222 77.1043 123.162 78.6038C123.434 77.9035 123.468 78.579 124.113 78.5708C123.663 78.785 123.655 79.2052 123.527 79.5677C124.02 79.5512 123.799 78.6367 124.274 78.9827C123.901 79.0898 123.909 79.3535 123.867 79.6006C124.334 79.5018 124.385 78.6202 124.699 78.8262C124.308 79.5347 123.281 80.5645 123.875 81.3225C124.393 80.6799 124.919 79.4194 125.479 79.1722C125.004 80.2597 124.028 81.133 123.57 82.2205C123.969 82.2946 123.969 81.6767 124.138 82.0145C124.028 82.0969 123.663 82.6077 124.011 82.5335C124.69 81.7673 125.191 80.9188 125.844 80.1444C125.615 81.306 124.588 82.1051 124.274 83.2256C124.639 83.1597 124.486 82.8631 124.928 82.8301C125.047 83.1597 125.335 83.1514 125.386 83.6045C126.26 83.3327 126.854 83.6622 127.644 83.5798C127.831 83.2585 127.729 82.4594 128.195 82.9043C128.773 80.3009 130.648 78.266 132.236 76.1075C135.563 69.7968 140.087 63.9392 142.752 56.5822C143.796 55.4947 143.329 54.4072 143.439 52.8748" fill="#F18428"/>
<path d="M31.1574 20.5304V27.9533H16.9153V37.7489H27.2531V45.246H16.9153V68.5528H16.754C12.281 66.8144 9.18309 62.5469 9.18309 57.4967V56.7882H9.09821V20.5304H31.1574Z" fill="white"/>
<path d="M81.023 28.0358C86.0731 28.0358 90.3848 25.0369 92.1756 20.687V20.5305H67.5957V67.6136H90.3848V60.1083H75.3278V45.6003H85.1564V38.095H75.3278V28.0275H81.023V28.0358Z" fill="white"/>
<path d="M63.0626 20.5551L63.0796 20.5386H35.2658V20.7034C36.7936 25.0533 40.4687 28.0604 44.7719 28.0604H52.7332L43.3375 42.6179V45.0318H48.4979C52.2919 45.0318 55.3983 48.5826 55.3983 52.9078C55.3983 57.233 52.2919 60.7921 48.4979 60.7921C45.2048 60.7921 42.5906 58.0898 41.8437 54.9015L35.3167 57.5296C37.0567 63.9227 42.1577 68.6763 48.5064 68.6763C56.1622 68.6763 62.3751 61.5747 62.3751 52.916C62.3751 46.0945 58.7085 40.8466 53.9724 38.3586L63.0541 24.4437V20.5551H63.0626Z" fill="#F18428"/>
</g>
<defs>
<clipPath id="clip0_1_3">
<rect width="144" height="105" fill="white"/>
</clipPath>
</defs>
</svg>
